<?xml version="1.0" encoding="utf-8"?>
<!-- Generator: Adobe Illustrator 23.0.0, SVG Export Plug-In . SVG Version: 6.00 Build 0)  -->
<!DOCTYPE svg PUBLIC "-//W3C//DTD SVG 1.1//EN" "http://www.w3.org/Graphics/SVG/1.1/DTD/svg11.dtd" [
	<!ENTITY ns_extend "http://ns.adobe.com/Extensibility/1.0/">
	<!ENTITY ns_ai "http://ns.adobe.com/AdobeIllustrator/10.0/">
	<!ENTITY ns_graphs "http://ns.adobe.com/Graphs/1.0/">
	<!ENTITY ns_vars "http://ns.adobe.com/Variables/1.0/">
	<!ENTITY ns_imrep "http://ns.adobe.com/ImageReplacement/1.0/">
	<!ENTITY ns_sfw "http://ns.adobe.com/SaveForWeb/1.0/">
	<!ENTITY ns_custom "http://ns.adobe.com/GenericCustomNamespace/1.0/">
	<!ENTITY ns_adobe_xpath "http://ns.adobe.com/XPath/1.0/">
]>
<svg version="1.1" id="Слой_1" xmlns:x="&ns_extend;" xmlns:i="&ns_ai;" xmlns:graph="&ns_graphs;"
	 xmlns="http://www.w3.org/2000/svg" xmlns:xlink="http://www.w3.org/1999/xlink" x="0px" y="0px" viewBox="0 0 530 100"
	 style="enable-background:new 0 0 530 100;" xml:space="preserve">
<style type="text/css">
	.st0{fill:#FFFFFF;stroke:#FFFFFF;stroke-width:0.5;stroke-miterlimit:10;}
</style>
<metadata>
	<sfw  xmlns="&ns_sfw;">
		<slices></slices>
		<sliceSourceBounds  bottomLeftOrigin="true" height="97.7249069" width="448.9394226" x="40.506321" y="1.137545">
			</sliceSourceBounds>
	</sfw>
</metadata>
<g>
	<path class="st0" d="M49.8346634,26.4844265h13.6706581l0.7752647,7.7535076h0.7141418
		c1.1360092-1.4282761,2.5320892-2.7885418,4.1882248-4.0807934c1.668129-1.3602638,3.6343536-2.4824829,5.8986664-3.3666553
		c2.1962967-0.8841724,4.7227249-1.3262577,7.5792847-1.3262577c3.9567566-0.0680122,7.2714996,0.6121197,9.9442215,2.0403976
		c2.6847229,1.3602638,4.5734024,3.570694,5.6660538,6.6312885c1.092659,3.0605965,1.23526,7.0733757,0.4278183,12.0383415
		l-5.5585556,31.5241318H74.7768707L80.08358,47.6025352c0.5996246-3.4006615,0.4132462-5.8151321-0.5591507-7.243412
		c-0.9043808-1.4282761-2.5527954-2.1084099-4.9452515-2.0403938c-1.9723892,0-3.7166595,0.4420853-5.2328339,1.3262558
		c-1.5161667,0.8841743-2.8302612,1.9723854-3.9422913,3.264637l-6.134201,34.788765H40.8042603L49.8346634,26.4844265z"/>
	<path class="st0" d="M107.1507416,26.4844265h13.8746948l1.3871384,6.0191708h0.6121216
		c0.9720612-0.8841724,2.2341614-1.8703632,3.7863083-2.9585762c1.620163-1.0882111,3.5563965-2.0403957,5.8087158-2.8565559
		c2.320343-0.8161583,5.0108032-1.2242374,8.0713959-1.2242374c3.8207397-0.0680122,7.2815247,0.7481461,10.38237,2.4484768
		c3.0328369,1.7003307,5.2896881,4.5228806,6.7705383,8.4676476c1.4928436,3.8767548,1.6856384,9.1477776,0.5783844,15.813076
		c-1.2552795,6.7333069-3.3469238,12.0383377-6.2749329,15.9150925c-2.8600006,3.8767548-6.1342468,6.6312943-9.8227386,8.2636108
		c-3.6884766,1.6323166-7.3690796,2.4484711-11.0417938,2.4484711c-3.4566803-0.0680084-6.2733154-0.68013-8.4499054-1.8363571
		c-2.232605-1.2242355-3.8171234-2.6525116-4.75354-4.2848282h-0.612114l-4.5691681,25.9130402H94.4326248L107.1507416,26.4844265z
		 M119.3562088,61.9873314c0.6803055,1.1562233,1.7026367,2.1084099,3.067009,2.8565559
		c1.2963638,0.7481461,2.7206955,1.1562271,4.2730103,1.2242355c1.8363495,0,3.6086426-0.4080734,5.3168488-1.2242355
		c1.7642365-0.7481461,3.3023376-2.1424179,4.6143036-4.1828156c1.2999725-1.9723816,2.2677612-4.7609253,2.9033661-8.3656235
		c0.6236115-3.5366898,0.6392212-6.3252335,0.0467987-8.3656273c-0.5123901-2.1084099-1.5128021-3.5706978-3.0012054-4.3868561
		c-1.4084015-0.8841705-3.0707855-1.2922516-4.9871521-1.2242355c-1.8363495,0-3.5006256,0.374073-4.9928055,1.1222153
		c-1.5601959,0.7481461-2.8103027,1.6663246-3.7503357,2.7545357L119.3562088,61.9873314z"/>
	<path class="st0" d="M167.416275,26.4844265h13.6706543l0.7752686,7.7535076h0.7141266
		c1.1360168-1.4282761,2.5321045-2.7885418,4.1882324-4.0807934c1.6681366-1.3602638,3.6343536-2.4824829,5.8986664-3.3666553
		c2.1963043-0.8841724,4.7227325-1.3262577,7.5792847-1.3262577c3.9567566-0.0680122,7.2714996,0.6121197,9.9442291,2.0403976
		c2.6847076,1.3602638,4.5733948,3.570694,5.6660461,6.6312885s1.23526,7.0733757,0.4278107,12.0383415l-5.558548,31.5241318
		h-18.3635712l5.3067169-30.0958519c0.5996246-3.4006615,0.4132385-5.8151321-0.5591583-7.243412
		c-0.9043732-1.4282761-2.5527954-2.1084099-4.9452515-2.0403938c-1.9723816,0-3.7166595,0.4420853-5.2328339,1.3262558
		c-1.5161591,0.8841743-2.8302612,1.9723854-3.9422913,3.264637l-6.134201,34.788765h-18.4655914L167.416275,26.4844265z"/>
	<path class="st0" d="M223.7677155,26.4844265h13.6706696l0.7752533,7.7535076h0.8161621
		c1.0440216-1.2922516,2.3600922-2.5845032,3.9482117-3.8767529c1.5321045-1.3602657,3.4363098-2.5164909,5.712616-3.4686756
		s4.9447632-1.428278,8.0053558-1.428278c3.7407227,0,6.9354553,0.7821522,9.584198,2.3464565
		c2.5927124,1.4962902,4.4353943,3.7747345,5.5280457,6.835331h0.7141418
		c1.2160339-1.4962921,2.6300964-2.9585762,4.2421875-4.3868542c1.5321045-1.3602657,3.4303284-2.4824829,5.6946411-3.3666553
		c2.2082825-0.9521847,4.8767395-1.428278,8.0053406-1.428278c5.9851685,0,10.4462891,1.7003307,13.3833313,5.1009922
		c2.8690491,3.4006615,3.7539673,8.603672,2.6547852,15.6090355l-5.5585632,31.5241318h-18.6696472l5.2887268-29.9938354
		c0.6476135-3.6727142,0.4792175-6.1892014-0.505188-7.5494652c-1.0643921-1.2922516-2.6907959-1.9043732-4.8792114-1.8363571
		c-2.3244324,0.0680122-4.2687378,0.68013-5.8328552,1.8363571c-1.5641479,1.1562233-2.7501831,2.4824829-3.558136,3.9787712
		l-5.918335,33.5645294h-18.3635559l5.3966522-30.6059532c0.5396576-3.0605965,0.3913116-5.3050308-0.4450531-6.7333107
		c-0.8483582-1.3602638-2.4967804-2.0403938-4.9452515-2.0403938c-2.0404053,0-3.8366699,0.5441055-5.3888245,1.6323166
		c-1.5401459,1.0201988-2.844223,2.2444344-3.9122314,3.6727142l-6.0082703,34.0746269h-18.4655914L223.7677155,26.4844265z"/>
	<path class="st0" d="M311.1932373,59.334816h20.3019714l-3.2380066,18.3635712h-20.3019409L311.1932373,59.334816z"/>
	<path class="st0" d="M344.1365051,37.4005508h-8.7737122l1.9248047-10.9161243h8.7737122l0.9354248-5.3050327
		c1.1512756-6.5292692,3.7210693-11.460228,7.7093811-14.7928762c3.9882813-3.3326485,9.4511108-4.9989724,16.3884583-4.9989724
		c2.3124695,0,4.6289368,0.1700331,6.9494324,0.5100993c2.2524719,0.3400662,4.4129639,0.8161588,6.4814758,1.4282777
		l-4.0490112,12.5484409c-1.320343-0.6121197-2.6086426-1.0201988-3.8649292-1.2242384
		c-1.3122864-0.2720528-2.5125427-0.4080791-3.6007385-0.4080791c-1.8363647,0-3.4226074,0.5100994-4.7586975,1.5302973
		c-1.4041443,1.0201988-2.3400574,2.8565559-2.8077698,5.5090714l-0.9174194,5.2030125h14.4868164l-1.9248047,10.9161243
		h-14.4868164l-7.1056213,40.2978363h-18.4655762L344.1365051,37.4005508z"/>
	<path class="st0" d="M426.1589355,77.6983871h-13.6706543l-0.7932739-7.6514893h-0.6121216
		c-1.1240234,1.3602676-2.5200806,2.7205276-4.1882019,4.0807953c-1.6561584,1.2922516-3.6163635,2.3804626-5.8806763,3.2646332
		s-4.8307495,1.3602676-7.6993103,1.4282761c-3.8767395,0-7.1574707-0.68013-9.8421936-2.04039
		c-2.6727295-1.4282837-4.5954285-3.63871-5.7680664-6.6312943c-1.160675-3.0605927-1.3032837-7.0733757-0.4278259-12.0383415
		l5.5765381-31.6261501h18.4656067l-5.324707,30.1978741c-0.5996399,3.4006615-0.4472656,5.8151283,0.4571228,7.2434082
		c0.984375,1.3602638,2.6328125,2.0403938,4.9452515,2.0403938c1.984375-0.0680084,3.7346497-0.5441055,5.250824-1.4282761
		c1.5721741-0.8161583,2.8802795-1.8703613,3.9243164-3.1626129l6.1521912-34.8907852h18.4655762L426.1589355,77.6983871z"/>
	<path class="st0" d="M439.8167114,26.4844265h13.6706848l0.775238,7.7535076h0.7141418
		c1.1360168-1.4282761,2.5321045-2.7885418,4.1882324-4.0807934c1.6681213-1.3602638,3.6343689-2.4824829,5.8986816-3.3666553
		c2.1962891-0.8841724,4.7227173-1.3262577,7.5792847-1.3262577c3.9567566-0.0680122,7.2714844,0.6121197,9.9442139,2.0403976
		c2.6847229,1.3602638,4.5733948,3.570694,5.6660461,6.6312885s1.23526,7.0733757,0.4278259,12.0383415l-5.5585632,31.5241318
		h-18.3635559l5.3067017-30.0958519c0.5996399-3.4006615,0.4132385-5.8151321-0.5591431-7.243412
		c-0.9043884-1.4282761-2.5527954-2.1084099-4.9452515-2.0403938c-1.9723816,0-3.7166748,0.4420853-5.2328491,1.3262558
		c-1.5161438,0.8841743-2.8302612,1.9723854-3.9422913,3.264637l-6.1341858,34.788765h-18.4656067L439.8167114,26.4844265z"/>
</g>
</svg>
